<svg xmlns="http://www.w3.org/2000/svg" version="1.1" xmlns:xlink="http://www.w3.org/1999/xlink" width="1000" height="1000"><metadata><rdf:RDF xmlns:rdf="http://www.w3.org/1999/02/22-rdf-syntax-ns#" xmlns:dc="http://purl.org/dc/elements/1.1/"><rdf:Description><dc:creator>RealFaviconGenerator</dc:creator><dc:source>https://realfavicongenerator.net</dc:source></rdf:Description></rdf:RDF></metadata><g clip-path="url(#SvgjsClipPath1025)"><rect width="1000" height="1000" fill="#ffffff"></rect><g transform="matrix(5.215269913947525,0,0,5.215269913947525,0,0)"><svg xmlns="http://www.w3.org/2000/svg" version="1.1" xmlns:xlink="http://www.w3.org/1999/xlink" width="191.74463" height="191.74463" viewBox="0,0,191.74463,191.74463"><defs><linearGradient x1="144.12768" y1="180" x2="335.87232" y2="180" gradientUnits="userSpaceOnUse" id="color-1"><stop offset="0" stop-color="#ffeb47"></stop><stop offset="1" stop-color="#f29900"></stop></linearGradient><clipPath id="SvgjsClipPath1025"><rect width="1000" height="1000" x="0" y="0" rx="350" ry="350"></rect></clipPath></defs><g transform="translate(-144.12768,-84.12769)"><g stroke-miterlimit="10"><path d="M144.12768,275.87232v-191.74463h191.74463v191.74463z" fill="url(#color-1)" stroke="#000000" stroke-width="0" stroke-linecap="butt" stroke-linejoin="miter"></path><path d="M204.26505,116.9036c0,-5.09698 4.13193,-9.22892 9.22892,-9.22892c5.09698,0 9.22892,4.13193 9.22892,9.22892c0,5.09698 -4.13193,9.22892 -9.22892,9.22892c-5.09698,0 -9.22892,-4.13193 -9.22892,-9.22892z" fill="none" stroke="#ffffff" stroke-width="2.5" stroke-linecap="butt" stroke-linejoin="miter"></path><path d="M180,149.10842c0,-10.57991 8.57672,-19.15663 19.15663,-19.15663c10.57991,0 19.15663,8.57672 19.15663,19.15663c0,10.57991 -8.57672,19.15663 -19.15663,19.15663c-10.57991,0 -19.15663,-8.57672 -19.15663,-19.15663z" fill="none" stroke="#ffffff" stroke-width="3.75" stroke-linecap="butt" stroke-linejoin="miter"></path><path d="M205.3012,204.97591c0,-26.15036 21.19904,-47.3494 47.3494,-47.3494c26.15036,0 47.3494,21.19904 47.3494,47.3494c0,26.15036 -21.19904,47.3494 -47.3494,47.3494c-26.15036,0 -47.3494,-21.19904 -47.3494,-47.3494z" fill="none" stroke="#ffffff" stroke-width="5" stroke-linecap="butt" stroke-linejoin="miter"></path><g stroke-width="4"><path d="M236.5767,200.02194l32.29249,0.18405c2.5475,0.0145 4.60129,2.09167 4.58679,4.63947l-0.09204,16.14614c-0.01454,2.54786 -2.09189,4.60125 -4.63939,4.58676l-32.29248,-0.18402c-2.5478,-0.0145 -4.60138,-2.09154 -4.58686,-4.63939l0.092,-16.1461c0.0145,-2.5478 2.09167,-4.60145 4.63946,-4.58693z" fill="none" stroke="#ffffff" stroke-linecap="round" stroke-linejoin="round"></path><path d="M241.19024,200.00697l0.0526,-9.2264c0.01744,-3.05876 1.24921,-5.98524 3.42438,-8.13581c2.17518,-2.15053 5.11557,-3.34893 8.1743,-3.33147c3.05876,0.01744 5.9853,1.24926 8.13573,3.42442c2.15046,2.17524 3.34887,5.11554 3.33145,8.17431l-0.0526,9.2264" fill="none" stroke="#ffffff" stroke-linecap="round" stroke-linejoin="round"></path><g fill="#ffffff" stroke="none" stroke-linecap="butt" stroke-linejoin="miter"><path d="M249.25661,211.27217c0.01073,-1.8792 1.5428,-3.39395 3.42198,-3.38322c1.8792,0.01073 3.39395,1.5428 3.38322,3.42198c-0.01073,1.8792 -1.5428,3.39395 -3.42198,3.38322c-1.8792,-0.01073 -3.39395,-1.5428 -3.38322,-3.42198z"></path><path d="M251.24546,217.68383l0.03051,-5.34694l2.75449,0.0157l-0.03049,5.34698z"></path></g></g></g></g></svg></g></g></svg>